<?xml version="1.0" encoding="utf-8"?>
<!-- Generator: Adobe Illustrator 25.3.1, SVG Export Plug-In . SVG Version: 6.00 Build 0)  -->
<svg version="1.1" class="nav-svgs" id="instagram" xmlns="http://www.w3.org/2000/svg" xmlns:xlink="http://www.w3.org/1999/xlink" x="0px" y="0px"
	 viewBox="0 0 19.2 19.2" style="enable-background:new 0 0 19.2 19.2;" xml:space="preserve">
<style type="text/css">
	.st0{fill:none;}
	.st1{fill:#FF6978;}
</style>
	<path class="st0" d="M9.6,7C8.2,7,7,8.2,7,9.6c0,1.4,1.2,2.6,2.6,2.6c1.4,0,2.6-1.2,2.6-2.6C12.2,8.1,11,7,9.6,7z M9.6,11.3
		c-0.9,0-1.7-0.8-1.7-1.7c0-0.9,0.8-1.7,1.7-1.7c0.9,0,1.7,0.8,1.7,1.7C11.3,10.5,10.5,11.3,9.6,11.3z"/>
	<path class="st0" d="M12.3,6.3c-0.3,0-0.6,0.3-0.6,0.6s0.3,0.6,0.6,0.6s0.6-0.3,0.6-0.6S12.6,6.3,12.3,6.3z"/>
	<path class="st0" d="M12.9,4.8c-0.4-0.1-0.8-0.2-1.2-0.2c-0.6,0-0.7,0-2.1,0c-1.4,0-1.6,0-2.1,0c-0.4,0-0.8,0.1-1.2,0.2
		C5.6,5.1,5.1,5.6,4.8,6.3C4.7,6.7,4.6,7.1,4.6,7.5c0,0.6,0,0.7,0,2.1c0,1.4,0,1.6,0,2.1c0,0.4,0.1,0.8,0.2,1.2
		c0.3,0.7,0.8,1.2,1.5,1.5c0.4,0.1,0.8,0.2,1.2,0.2c0.6,0,0.7,0,2.1,0c1.4,0,1.6,0,2.1,0c0.4,0,0.8-0.1,1.2-0.2
		c0.7-0.3,1.2-0.8,1.5-1.5c0.1-0.4,0.2-0.8,0.2-1.2c0-0.6,0-0.7,0-2.1c0-1.4,0-1.6,0-2.1c0-0.4-0.1-0.8-0.2-1.2
		C14.1,5.6,13.6,5.1,12.9,4.8z M13.5,7.6c0,0.5,0,0.7,0,2c0,1.3,0,1.5,0,2c0,0.3-0.1,0.6-0.2,0.9c-0.1,0.4-0.5,0.7-0.9,0.9
		c-0.3,0.1-0.6,0.2-0.9,0.2c-0.5,0-0.7,0-2,0s-1.5,0-2,0c-0.3,0-0.6-0.1-0.9-0.2c-0.4-0.1-0.7-0.5-0.9-0.9c-0.1-0.3-0.2-0.6-0.2-0.9
		c0-0.5,0-0.7,0-2c0-1.3,0-1.5,0-2c0-0.3,0.1-0.7,0.2-0.9c0.2-0.5,0.5-0.8,1.1-0.9c0.3-0.1,0.6-0.2,0.9-0.2c0.5,0,0.7,0,2,0
		s1.5,0,2,0c0.3,0,0.6,0.1,0.9,0.2c0.4,0.1,0.7,0.5,0.9,0.9C13.6,6.9,13.7,7.3,13.5,7.6z"/>
	<path class="st1" d="M12.6,5.8c-0.3-0.1-0.6-0.2-0.9-0.2c-0.5,0-0.7,0-2,0s-1.5,0-2,0c-0.3,0-0.6,0.1-0.9,0.2
		C6.2,5.9,5.9,6.2,5.7,6.7C5.6,6.9,5.5,7.3,5.5,7.6c0,0.5,0,0.7,0,2c0,1.3,0,1.5,0,2c0,0.3,0.1,0.6,0.2,0.9c0.2,0.4,0.5,0.8,0.9,0.9
		c0.3,0.1,0.6,0.2,0.9,0.2c0.5,0,0.7,0,2,0s1.5,0,2,0c0.3,0,0.6-0.1,0.9-0.2c0.4-0.2,0.8-0.5,0.9-0.9c0.1-0.3,0.2-0.6,0.2-0.9
		c0-0.5,0-0.7,0-2c0-1.3,0-1.5,0-2c0.2-0.3,0.1-0.7,0-0.9C13.3,6.3,13,5.9,12.6,5.8z M9.6,12.2C8.2,12.2,7,11,7,9.6
		C7,8.2,8.2,7,9.6,7c1.4,0,2.6,1.1,2.6,2.6C12.2,11,11,12.2,9.6,12.2z M12.3,7.5c-0.3,0-0.6-0.3-0.6-0.6s0.3-0.6,0.6-0.6
		s0.6,0.3,0.6,0.6S12.6,7.5,12.3,7.5z"/>
	<path class="st1" d="M9.6,7.9c-0.9,0-1.7,0.8-1.7,1.7c0,0.9,0.8,1.7,1.7,1.7c0.9,0,1.7-0.8,1.7-1.7C11.3,8.7,10.5,7.9,9.6,7.9z"/>
	<path class="st1" d="M9.6,0C4.3,0,0,4.3,0,9.6c0,5.3,4.3,9.6,9.6,9.6c5.3,0,9.6-4.3,9.6-9.6C19.2,4.3,14.9,0,9.6,0z M14.6,9.6
		c0,1.4,0,1.5,0,2.1c0,0.4-0.1,0.8-0.2,1.2c-0.3,0.7-0.8,1.2-1.5,1.5c-0.4,0.1-0.8,0.2-1.2,0.2c-0.5,0-0.7,0-2.1,0
		c-1.4,0-1.5,0-2.1,0c-0.4,0-0.8-0.1-1.2-0.2c-0.7-0.3-1.2-0.8-1.5-1.5c-0.1-0.4-0.2-0.8-0.2-1.2c0-0.5,0-0.7,0-2.1
		c0-1.4,0-1.5,0-2.1c0-0.4,0.1-0.8,0.2-1.2c0.3-0.7,0.8-1.2,1.5-1.5c0.4-0.1,0.8-0.2,1.2-0.2c0.5,0,0.7,0,2.1,0c1.4,0,1.5,0,2.1,0
		c0.4,0,0.8,0.1,1.2,0.2c0.7,0.3,1.2,0.8,1.5,1.5c0.1,0.4,0.2,0.8,0.2,1.2C14.6,8,14.6,8.2,14.6,9.6z"/>
</svg>
