<svg version="1.1" id="Layer_1" xmlns="http://www.w3.org/2000/svg" xmlns:xlink="http://www.w3.org/1999/xlink" x="0px" y="0px"
	 viewBox="0 0 20 20" style="enable-background:new 0 0 20 20;" xml:space="preserve">
<style type="text/css">
	.st0{fill:#FF6978;}
</style>
<path class="st0" d="M10,0.4c-5.3,0-9.6,4.3-9.6,9.6s4.3,9.6,9.6,9.6s9.6-4.3,9.6-9.6S15.3,0.4,10,0.4z M6.2,7h7.5
	c0.4,0,0.2,0.5,0,0.6c-0.2,0.1-3.2,1.9-3.3,2S10.1,9.8,10,9.8c-0.1,0-0.3,0-0.4-0.1l-3.3-2C6,7.5,5.8,7,6.2,7z M14,12.5
	c0,0.2-0.3,0.5-0.4,0.5H6.4C6.3,13,6,12.7,6,12.5V8.9c0-0.1,0-0.2,0.2-0.1l3.4,2c0.1,0.1,0.3,0.1,0.4,0.1c0.1,0,0.3,0,0.4-0.1l3.4-2
	C14,8.6,14,8.8,14,8.9V12.5z"/>
</svg>
