<svg version="1.1" class="nav-svgs" id="vimeo" xmlns="http://www.w3.org/2000/svg" xmlns:xlink="http://www.w3.org/1999/xlink" x="0px" y="0px"
	 viewBox="0 0 32 32" style="enable-background:new 0 0 32 32;" xml:space="preserve">
<style type="text/css">
	.st0{fill:#FF6978;}
</style>
<path class="st0" d="M16,0C7.2,0,0,7.2,0,16s7.2,16,16,16s16-7.2,16-16S24.8,0,16,0z M23.8,13c-0.9,5.3-6.2,9.7-7.7,10.8
	c-1.6,1-3-0.4-3.5-1.5c-0.6-1.2-2.4-7.9-2.8-8.5c-0.5-0.6-1.9,0.6-1.9,0.6l-0.7-0.9c0,0,2.8-3.4,5-3.8c2.3-0.5,2.3,3.5,2.8,5.7
	c0.5,2.1,0.9,3.4,1.4,3.4s1.4-1.2,2.3-3c1-1.8,0-3.4-2-2.3C17.5,8.8,24.8,7.7,23.8,13z"/>
</svg>
